<svg width="919" height="205" viewBox="0 0 919 205" version="1.1" xmlns="http://www.w3.org/2000/svg" xmlns:xlink="http://www.w3.org/1999/xlink" xmlns:figma="http://www.figma.com/figma/ns">
<title>assembly-horizontal</title>
<desc>Created using Figma</desc>
<g id="Canvas" transform="translate(2284 1796)" figma:type="canvas">
<g id="assembly-horizontal" style="mix-blend-mode:normal;" figma:type="frame">
<g id="Canvas" style="mix-blend-mode:normal;" figma:type="frame">
<g id="Group" style="mix-blend-mode:normal;isolation:isolate;" figma:type="frame">
<g id="Group" style="mix-blend-mode:normal;isolation:isolate;" figma:type="frame">
<g id="ASSEMBLY" style="mix-blend-mode:normal;isolation:isolate;" figma:type="frame">
<g id="Vector" style="mix-blend-mode:normal;isolation:isolate;" figma:type="vector">
<use xlink:href="#path0_fill" transform="matrix(2 0 0 2 -2007.45 -1731.75)" fill="#FFFFFF" style="mix-blend-mode:normal;"/>
</g>
<g id="Vector" style="mix-blend-mode:normal;isolation:isolate;" figma:type="vector">
<use xlink:href="#path1_fill" transform="matrix(2 0 0 2 -1909.49 -1733.92)" fill="#FFFFFF" style="mix-blend-mode:normal;"/>
</g>
<g id="Vector" style="mix-blend-mode:normal;isolation:isolate;" figma:type="vector">
<use xlink:href="#path2_fill" transform="matrix(2 0 0 2 -1837.43 -1733.92)" fill="#FFFFFF" style="mix-blend-mode:normal;"/>
</g>
<g id="Vector" style="mix-blend-mode:normal;isolation:isolate;" figma:type="vector">
<use xlink:href="#path3_fill" transform="matrix(2 0 0 2 -1757.87 -1731.75)" fill="#FFFFFF" style="mix-blend-mode:normal;"/>
</g>
<g id="Vector" style="mix-blend-mode:normal;isolation:isolate;" figma:type="vector">
<use xlink:href="#path4_fill" transform="matrix(2 0 0 2 -1692.43 -1731.75)" fill="#FFFFFF" style="mix-blend-mode:normal;"/>
</g>
<g id="Vector" style="mix-blend-mode:normal;isolation:isolate;" figma:type="vector">
<use xlink:href="#path5_fill" transform="matrix(2 0 0 2 -1568.22 -1731.75)" fill="#FFFFFF" style="mix-blend-mode:normal;"/>
</g>
<g id="Vector" style="mix-blend-mode:normal;isolation:isolate;" figma:type="vector">
<use xlink:href="#path6_fill" transform="matrix(2 0 0 2 -1489.01 -1731.75)" fill="#FFFFFF" style="mix-blend-mode:normal;"/>
</g>
<g id="Vector" style="mix-blend-mode:normal;isolation:isolate;" figma:type="vector">
<use xlink:href="#path7_fill" transform="matrix(2 0 0 2 -1432.71 -1731.75)" fill="#FFFFFF" style="mix-blend-mode:normal;"/>
</g>
</g>
</g>
</g>
<g id="color" style="mix-blend-mode:normal;" figma:type="frame">
<g id="frame" style="mix-blend-mode:normal;" figma:type="vector">
<use xlink:href="#path8_fill" transform="translate(-2284 -1795.25)" fill="url(#paint8_linear)" style="mix-blend-mode:normal;"/>
</g>
<g id="a" style="mix-blend-mode:normal;" figma:type="vector">
<use xlink:href="#path9_fill" transform="translate(-2233 -1744.25)" fill="url(#paint9_linear)" style="mix-blend-mode:normal;"/>
</g>
<g id="stem" style="mix-blend-mode:normal;" opacity="0.75" figma:type="vector">
<use xlink:href="#path10_fill" transform="matrix(6.12323e-17 1 -1 6.12323e-17 -2131 -1667.75)" fill="url(#paint10_linear)" style="mix-blend-mode:normal;"/>
</g>
<g id="stem" style="mix-blend-mode:normal;" opacity="0.5" figma:type="vector">
<use xlink:href="#path10_fill" transform="matrix(6.12323e-17 1 -1 6.12323e-17 -2207.5 -1667.75)" fill="url(#paint11_linear)" style="mix-blend-mode:normal;"/>
</g>
</g>
</g>
</g>
</g>
<defs>
<linearGradient id="paint8_linear" x1="0" y1="0" x2="1" y2="0" gradientUnits="userSpaceOnUse" gradientTransform="matrix(1.24914e-14 204 -204 1.24914e-14 204 -1.24914e-14)">
<stop offset="0" stop-color="#28E6DB"/>
<stop offset="1" stop-color="#1B94FB"/>
</linearGradient>
<linearGradient id="paint9_linear" x1="0" y1="0" x2="1" y2="0" gradientUnits="userSpaceOnUse" gradientTransform="matrix(-2.81977e-13 202.834 -270.446 -1.78779e-13 186.223 -49.2514)">
<stop offset="0" stop-color="#28E6DB"/>
<stop offset="1" stop-color="#1B94FB"/>
</linearGradient>
<linearGradient id="paint10_linear" x1="0" y1="0" x2="1" y2="0" gradientUnits="userSpaceOnUse" gradientTransform="matrix(202.251 1.26581e-13 2.15334e-14 202.251 -126.917 -101.126)">
<stop offset="0" stop-color="#28E6DB"/>
<stop offset="1" stop-color="#1B94FB"/>
</linearGradient>
<linearGradient id="paint11_linear" x1="0" y1="0" x2="1" y2="0" gradientUnits="userSpaceOnUse" gradientTransform="matrix(202.251 -3.34232e-14 -1.26894e-12 202.251 -126.334 -101.126)">
<stop offset="0" stop-color="#28E6DB"/>
<stop offset="1" stop-color="#1B94FB"/>
</linearGradient>
<path id="path0_fill" d="M 16.6113 -3.57437e-08L 24.9316 -3.57437e-08L 41.5137 43.0957L 32.9883 43.0957L 29.6191 34.2187L 12.041 34.2187L 8.52539 43.0957L 0 43.0957L 16.6113 -3.57437e-08ZM 20.8301 11.4258L 15.0879 26.2207L 26.543 26.2207L 20.8301 11.4258Z"/>
<path id="path1_fill" d="M 26.3086 6.94336L 20.2441 12.3047C 18.1152 9.33594 15.9473 7.85156 13.7402 7.85156C 12.666 7.85156 11.7871 8.14453 11.1035 8.73047C 10.4199 9.29688 10.0781 9.94141 10.0781 10.6641C 10.0781 11.3867 10.3223 12.0703 10.8105 12.7148C 11.4746 13.5742 13.4766 15.4199 16.8164 18.252C 19.9414 20.8691 21.8359 22.5195 22.5 23.2031C 24.1601 24.8828 25.332 26.4941 26.0156 28.0371C 26.7187 29.5605 27.0703 31.2305 27.0703 33.0469C 27.0703 36.582 25.8496 39.502 23.4082 41.8066C 20.9668 44.1113 17.7832 45.2637 13.8574 45.2637C 10.791 45.2637 8.1152 44.5117 5.8301 43.0078C 3.5644 41.5039 1.6211 39.1406 -1.81885e-06 35.918L 6.8848 31.7578C 8.9551 35.5664 11.3379 37.4707 14.0332 37.4707C 15.4394 37.4707 16.6211 37.0605 17.5781 36.2402C 18.5351 35.4199 19.0137 34.4727 19.0137 33.3984C 19.0137 32.4219 18.6523 31.4453 17.9297 30.4688C 17.207 29.4922 15.6152 27.998 13.1543 25.9863C 8.4668 22.1582 5.4394 19.209 4.0723 17.1387C 2.7051 15.0488 2.0215 12.9687 2.0215 10.8984C 2.0215 7.91016 3.1543 5.35156 5.4199 3.22266C 7.7051 1.07422 10.5176 0 13.8574 0C 16.0058 0 18.0469 0.498047 19.9805 1.49414C 21.9336 2.49023 24.043 4.30664 26.3086 6.94336Z"/>
<path id="path2_fill" d="M 26.3088 6.94336L 20.2438 12.3047C 18.1148 9.33594 15.9468 7.85156 13.7402 7.85156C 12.666 7.85156 11.7871 8.14453 11.1035 8.73047C 10.4199 9.29688 10.0781 9.94141 10.0781 10.6641C 10.0781 11.3867 10.3222 12.0703 10.8105 12.7148C 11.4746 13.5742 13.4765 15.4199 16.8168 18.252C 19.9418 20.8691 21.8358 22.5195 22.4998 23.2031C 24.1598 24.8828 25.3318 26.4941 26.0158 28.0371C 26.7188 29.5605 27.0698 31.2305 27.0698 33.0469C 27.0698 36.582 25.8498 39.502 23.4078 41.8066C 20.9668 44.1113 17.7828 45.2637 13.8574 45.2637C 10.791 45.2637 8.1152 44.5117 5.83 43.0078C 3.5644 41.5039 1.621 39.1406 5.00488e-07 35.918L 6.8847 31.7578C 8.955 35.5664 11.3378 37.4707 14.0332 37.4707C 15.4398 37.4707 16.6208 37.0605 17.5778 36.2402C 18.5348 35.4199 19.0138 34.4727 19.0138 33.3984C 19.0138 32.4219 18.6518 31.4453 17.9298 30.4688C 17.2068 29.4922 15.6148 27.998 13.1543 25.9863C 8.4668 22.1582 5.4394 19.209 4.0722 17.1387C 2.705 15.0488 2.0214 12.9687 2.0214 10.8984C 2.0214 7.91016 3.1543 5.35156 5.4199 3.22266C 7.705 1.07422 10.5175 0 13.8574 0C 16.0058 0 18.0468 0.498047 19.9808 1.49414C 21.9338 2.49023 24.0428 4.30664 26.3088 6.94336Z"/>
<path id="path3_fill" d="M 3.66211e-07 -3.57437e-08L 23.525 -3.57437e-08L 23.525 8.02735L 8.144 8.02735L 8.144 15.8203L 23.525 15.8203L 23.525 23.7012L 8.144 23.7012L 8.144 35.039L 23.525 35.039L 23.525 43.0957L 3.66211e-07 43.0957L 3.66211e-07 -3.57437e-08Z"/>
<path id="path4_fill" d="M 7.441 -3.57437e-08L 15.468 -3.57437e-08L 25.429 30.0586L 35.537 -3.57437e-08L 43.447 -3.57437e-08L 50.712 43.0957L 42.802 43.0957L 38.173 15.8789L 29.003 43.0957L 21.767 43.0957L 12.714 15.8789L 7.998 43.0957L 1.58691e-06 43.0957L 7.441 -3.57437e-08Z"/>
<path id="path5_fill" d="M 5.49316e-06 43.0957L 5.49316e-06 -3.57437e-08L 6.768 -3.57437e-08C 10.694 -3.57437e-08 13.565 0.25391 15.381 0.76172C 17.959 1.44532 20.01 2.71485 21.533 4.57032C 23.057 6.42579 23.819 8.61329 23.819 11.1328C 23.819 12.7734 23.467 14.2676 22.764 15.6152C 22.08 16.9433 20.957 18.1933 19.395 19.3652C 22.012 20.5957 23.926 22.1387 25.137 23.9941C 26.348 25.8301 26.953 28.0078 26.953 30.5273C 26.953 32.9492 26.328 35.1562 25.078 37.1484C 23.828 39.1406 22.217 40.6348 20.244 41.6308C 18.272 42.6074 15.547 43.0957 12.071 43.0957L 5.49316e-06 43.0957ZM 8.20299 7.82227L 8.20299 16.9043L 9.99 16.9043C 11.983 16.9043 13.457 16.4844 14.414 15.6445C 15.391 14.8047 15.879 13.6621 15.879 12.2168C 15.879 10.8691 15.42 9.80472 14.502 9.02342C 13.584 8.22266 12.188 7.82227 10.313 7.82227L 8.20299 7.82227ZM 8.20299 24.2285L 8.20299 35.2734L 10.254 35.2734C 13.653 35.2734 15.938 34.8437 17.11 33.9844C 18.301 33.125 18.897 31.875 18.897 30.2344C 18.897 28.3789 18.203 26.914 16.817 25.8398C 15.43 24.7656 13.125 24.2285 9.90301 24.2285L 8.20299 24.2285Z"/>
<path id="path6_fill" d="M 1.2207e-06 -3.57437e-08L 8.203 -3.57437e-08L 8.203 35.2734L 20.156 35.2734L 20.156 43.0957L 1.2207e-06 43.0957L 1.2207e-06 -3.57437e-08Z"/>
<path id="path7_fill" d="M -4.88281e-06 -3.57437e-08L 8.81799 -3.57437e-08L 16.845 15.4687L 24.814 -3.57437e-08L 33.515 -3.57437e-08L 20.918 24.4336L 20.918 43.0957L 12.656 43.0957L 12.656 24.4336L -4.88281e-06 -3.57437e-08Z"/>
<path id="path8_fill" fill-rule="evenodd" d="M 178.5 25.5L 25.5 25.5L 25.5 178.5L 178.5 178.5L 178.5 25.5ZM 25.5 0L 0 0L 0 25.5L 0 178.5L 0 204L 25.5 204L 178.5 204L 204 204L 204 178.5L 204 25.5L 204 0L 178.5 0L 25.5 0Z"/>
<path id="path9_fill" fill-rule="evenodd" d="M 76.5 25.5L 25.5 25.5L 25.5 51L 76.5 51L 76.5 25.5ZM 25.5 0L 0 0L 0 25.5L 0 51L 0 76.5L 25.5 76.5L 76.5 76.5L 102 76.5L 102 51L 102 25.5L 102 0L 76.5 0L 25.5 0Z"/>
<path id="path10_fill" d="M 0 0L 25.5 0L 25.5 25.5L 0 25.5L 0 0Z"/>
</defs>
</svg>
