<svg width="40" height="40" viewBox="0 0 40 40" version="1.1" xmlns="http://www.w3.org/2000/svg" xmlns:xlink="http://www.w3.org/1999/xlink" xmlns:figma="http://www.figma.com/figma/ns">
<title>Vector</title>
<desc>Created using Figma</desc>
<g id="Canvas" transform="translate(-1693 401)" figma:type="canvas">
<g id="Vector" style="mix-blend-mode:normal;" figma:type="vector">
<use xlink:href="#path0_fill" transform="translate(1693 -401)" style="mix-blend-mode:normal;"/>
</g>
</g>
<defs>
<path id="path0_fill" d="M 40 23.6666L 40 16.3333L 35.5 15.5833C 35.1667 14.3333 34.6667 13.1666 34.0833 12.1666L 36.75 8.5L 31.5833 3.25L 27.8333 5.83328C 26.75 5.25 25.5833 4.75 24.4167 4.41657L 23.6667 0L 16.3333 0L 15.5833 4.5C 14.3333 4.83329 13.25 5.33329 12.1667 5.91657L 8.5 3.33328L 3.25 8.5L 5.91671 12.1666C 5.33343 13.25 4.83343 14.4166 4.5 15.6666L -8.12049e-15 16.3333L -8.12049e-15 23.6666L 4.5 24.4166C 4.83329 25.6666 5.33328 26.75 5.91671 27.8333L 3.25 31.5833L 8.41671 36.75L 12.1667 34.0833C 13.25 34.6666 14.4167 35.1666 15.6667 35.5L 16.4167 39.9166L 23.75 39.9166L 24.5 35.4166C 25.6667 35.0833 26.8333 34.5833 27.9167 34L 31.6667 36.6666L 36.8333 31.5L 34.1667 27.75C 34.75 26.6666 35.25 25.5833 35.5833 24.3333L 40 23.6666ZM 20 27.6666C 15.75 27.6666 12.3333 24.25 12.3333 20C 12.3333 15.75 15.8333 12.3333 20 12.3333C 24.1667 12.3333 27.6667 15.75 27.6667 20C 27.6667 24.25 24.25 27.6666 20 27.6666Z"/>
</defs>
</svg>
